<?xml version="1.0" encoding="UTF-8" standalone="no"?>
<!DOCTYPE svg PUBLIC "-//W3C//DTD SVG 1.1//EN"
 "http://www.w3.org/Graphics/SVG/1.1/DTD/svg11.dtd">
<!-- Generated by graphviz version 6.0.1 (0)
 -->
<!-- Title: G Pages: 1 -->
<svg width="556pt" height="437pt"
 viewBox="0.00 0.00 556.00 437.00" xmlns="http://www.w3.org/2000/svg" xmlns:xlink="http://www.w3.org/1999/xlink">
<g id="graph0" class="graph" transform="scale(1 1) rotate(0) translate(4 433)">
<title>G</title>
<polygon fill="white" stroke="none" points="-4,4 -4,-433 552,-433 552,4 -4,4"/>
<g id="clust1" class="cluster">
<title>cluster_h</title>
<path fill="#f0f8ff" stroke="black" stroke-dasharray="5,2" d="M20,-98C20,-98 220,-98 220,-98 226,-98 232,-104 232,-110 232,-110 232,-354 232,-354 232,-360 226,-366 220,-366 220,-366 20,-366 20,-366 14,-366 8,-360 8,-354 8,-354 8,-110 8,-110 8,-104 14,-98 20,-98"/>
<text text-anchor="middle" x="120" y="-350.8" font-family="Times,serif" font-size="14.00">齐次 AX = 0</text>
</g>
<g id="clust2" class="cluster">
<title>cluster_nh</title>
<path fill="#f5fffa" stroke="black" stroke-dasharray="5,2" d="M252,-8C252,-8 528,-8 528,-8 534,-8 540,-14 540,-20 540,-20 540,-354 540,-354 540,-360 534,-366 528,-366 528,-366 252,-366 252,-366 246,-366 240,-360 240,-354 240,-354 240,-20 240,-20 240,-14 246,-8 252,-8"/>
<text text-anchor="middle" x="390" y="-350.8" font-family="Times,serif" font-size="14.00">非齐次 AX = b</text>
</g>
<!-- start -->
<g id="node1" class="node">
<title>start</title>
<ellipse fill="#dcdcdc" stroke="black" cx="256" cy="-411" rx="94.48" ry="18"/>
<text text-anchor="middle" x="256" y="-407.3" font-family="SimHei" font-size="14.00">线性方程组解的判定</text>
</g>
<!-- h_check_rank -->
<g id="node2" class="node">
<title>h_check_rank</title>
<path fill="#fffacd" stroke="black" d="M112.22,-332.71C112.22,-332.71 43.11,-319.29 43.11,-319.29 37.22,-318.14 37.22,-315.86 43.11,-314.71 43.11,-314.71 112.22,-301.29 112.22,-301.29 118.11,-300.14 129.89,-300.14 135.78,-301.29 135.78,-301.29 204.89,-314.71 204.89,-314.71 210.78,-315.86 210.78,-318.14 204.89,-319.29 204.89,-319.29 135.78,-332.71 135.78,-332.71 129.89,-333.86 118.11,-333.86 112.22,-332.71"/>
<text text-anchor="middle" x="124" y="-313.3" font-family="SimHei" font-size="14.00">Rank(A) = n ?</text>
</g>
<!-- start&#45;&gt;h_check_rank -->
<g id="edge9" class="edge">
<title>start&#45;&gt;h_check_rank</title>
<path fill="none" stroke="black" d="M189.3,-397.93C189.3,-397.93 189.3,-388.25 189.3,-376.35"/>
<polygon fill="black" stroke="black" points="192.8,-376 189.3,-366 185.8,-376 192.8,-376"/>
</g>
<!-- nh_check_rank_consistency -->
<g id="node6" class="node">
<title>nh_check_rank_consistency</title>
<path fill="#fffacd" stroke="black" d="M378.1,-333.49C378.1,-333.49 260.3,-318.51 260.3,-318.51 254.35,-317.76 254.35,-316.24 260.3,-315.49 260.3,-315.49 378.1,-300.51 378.1,-300.51 384.05,-299.76 395.95,-299.76 401.9,-300.51 401.9,-300.51 519.7,-315.49 519.7,-315.49 525.65,-316.24 525.65,-317.76 519.7,-318.51 519.7,-318.51 401.9,-333.49 401.9,-333.49 395.95,-334.24 384.05,-334.24 378.1,-333.49"/>
<text text-anchor="middle" x="390" y="-313.3" font-family="SimHei" font-size="14.00">Rank(A) = Rank(A|b) ?</text>
</g>
<!-- start&#45;&gt;nh_check_rank_consistency -->
<g id="edge10" class="edge">
<title>start&#45;&gt;nh_check_rank_consistency</title>
<path fill="none" stroke="black" d="M299.35,-394.63C299.35,-394.63 299.35,-386.41 299.35,-376"/>
<polygon fill="black" stroke="black" points="302.85,-376 299.35,-366 295.85,-376 302.85,-376"/>
</g>
<!-- h_unique -->
<g id="node3" class="node">
<title>h_unique</title>
<path fill="#98fb98" stroke="black" d="M106,-247C106,-247 28,-247 28,-247 22,-247 16,-241 16,-235 16,-235 16,-223 16,-223 16,-217 22,-211 28,-211 28,-211 106,-211 106,-211 112,-211 118,-217 118,-223 118,-223 118,-235 118,-235 118,-241 112,-247 106,-247"/>
<text text-anchor="middle" x="67" y="-225.3" font-family="SimHei" font-size="14.00">只有唯一零解</text>
</g>
<!-- h_check_rank&#45;&gt;h_unique -->
<g id="edge1" class="edge">
<title>h_check_rank&#45;&gt;h_unique</title>
<path fill="none" stroke="black" d="M74.58,-308.56C74.58,-308.56 74.58,-257.32 74.58,-257.32"/>
<polygon fill="black" stroke="black" points="78.08,-257.32 74.58,-247.32 71.08,-257.32 78.08,-257.32"/>
<text text-anchor="middle" x="83.5" y="-269.8" font-family="SimHei" font-size="14.00">是</text>
</g>
<!-- h_infinite -->
<g id="node4" class="node">
<title>h_infinite</title>
<path fill="#98fb98" stroke="black" d="M212,-248C212,-248 148,-248 148,-248 142,-248 136,-242 136,-236 136,-236 136,-222 136,-222 136,-216 142,-210 148,-210 148,-210 212,-210 212,-210 218,-210 224,-216 224,-222 224,-222 224,-236 224,-236 224,-242 218,-248 212,-248"/>
<text text-anchor="middle" x="180" y="-232.8" font-family="SimHei" font-size="14.00">有无穷多解</text>
<text text-anchor="middle" x="180" y="-217.8" font-family="SimHei" font-size="14.00">(有非零解)</text>
</g>
<!-- h_check_rank&#45;&gt;h_infinite -->
<g id="edge2" class="edge">
<title>h_check_rank&#45;&gt;h_infinite</title>
<path fill="none" stroke="black" d="M176.42,-308.88C176.42,-308.88 176.42,-258.18 176.42,-258.18"/>
<polygon fill="black" stroke="black" points="179.92,-258.18 176.42,-248.18 172.92,-258.18 179.92,-258.18"/>
<text text-anchor="middle" x="174" y="-269.8" font-family="SimHei" font-size="14.00">否 (Rank(A) &lt; n)</text>
</g>
<!-- h_note -->
<g id="node5" class="node">
<title>h_note</title>
<polygon fill="#f5f5f5" stroke="black" points="217.5,-159 78.5,-159 78.5,-106 223.5,-106 223.5,-153 217.5,-159"/>
<polyline fill="none" stroke="black" points="217.5,-159 217.5,-153"/>
<polyline fill="none" stroke="black" points="223.5,-153 217.5,-153"/>
<text text-anchor="middle" x="151" y="-143.8" font-family="SimHei" font-size="14.00">注：当 m &lt; n 时,</text>
<text text-anchor="middle" x="151" y="-128.8" font-family="SimHei" font-size="14.00">rank(A) ≤ m &lt; n,</text>
<text text-anchor="middle" x="151" y="-113.8" font-family="SimHei" font-size="14.00">方程组必有非零解。</text>
</g>
<!-- h_infinite&#45;&gt;h_note -->
<!-- nh_no_solution -->
<g id="node7" class="node">
<title>nh_no_solution</title>
<path fill="#ffcccb" stroke="black" d="M299,-247C299,-247 269,-247 269,-247 263,-247 257,-241 257,-235 257,-235 257,-223 257,-223 257,-217 263,-211 269,-211 269,-211 299,-211 299,-211 305,-211 311,-217 311,-223 311,-223 311,-235 311,-235 311,-241 305,-247 299,-247"/>
<text text-anchor="middle" x="284" y="-225.3" font-family="SimHei" font-size="14.00">无解</text>
</g>
<!-- nh_check_rank_consistency&#45;&gt;nh_no_solution -->
<g id="edge5" class="edge">
<title>nh_check_rank_consistency&#45;&gt;nh_no_solution</title>
<path fill="none" stroke="black" d="M284,-312.27C284,-312.27 284,-257.13 284,-257.13"/>
<polygon fill="black" stroke="black" points="287.5,-257.13 284,-247.13 280.5,-257.13 287.5,-257.13"/>
<text text-anchor="middle" x="325.5" y="-269.8" font-family="SimHei" font-size="14.00">否</text>
</g>
<!-- nh_check_rank_uniqueness -->
<g id="node8" class="node">
<title>nh_check_rank_uniqueness</title>
<path fill="#fffacd" stroke="black" d="M410.22,-244.71C410.22,-244.71 341.11,-231.29 341.11,-231.29 335.22,-230.14 335.22,-227.86 341.11,-226.71 341.11,-226.71 410.22,-213.29 410.22,-213.29 416.11,-212.14 427.89,-212.14 433.78,-213.29 433.78,-213.29 502.89,-226.71 502.89,-226.71 508.78,-227.86 508.78,-230.14 502.89,-231.29 502.89,-231.29 433.78,-244.71 433.78,-244.71 427.89,-245.86 416.11,-245.86 410.22,-244.71"/>
<text text-anchor="middle" x="422" y="-225.3" font-family="SimHei" font-size="14.00">Rank(A) = n ?</text>
</g>
<!-- nh_check_rank_consistency&#45;&gt;nh_check_rank_uniqueness -->
<g id="edge4" class="edge">
<title>nh_check_rank_consistency&#45;&gt;nh_check_rank_uniqueness</title>
<path fill="none" stroke="black" d="M422,-302.86C422,-302.86 422,-257.07 422,-257.07"/>
<polygon fill="black" stroke="black" points="425.5,-257.07 422,-247.07 418.5,-257.07 425.5,-257.07"/>
<text text-anchor="middle" x="413.5" y="-269.8" font-family="SimHei" font-size="14.00">是</text>
</g>
<!-- nh_unique -->
<g id="node9" class="node">
<title>nh_unique</title>
<path fill="#98fb98" stroke="black" d="M375,-150.5C375,-150.5 325,-150.5 325,-150.5 319,-150.5 313,-144.5 313,-138.5 313,-138.5 313,-126.5 313,-126.5 313,-120.5 319,-114.5 325,-114.5 325,-114.5 375,-114.5 375,-114.5 381,-114.5 387,-120.5 387,-126.5 387,-126.5 387,-138.5 387,-138.5 387,-144.5 381,-150.5 375,-150.5"/>
<text text-anchor="middle" x="350" y="-128.8" font-family="SimHei" font-size="14.00">有唯一解</text>
</g>
<!-- nh_check_rank_uniqueness&#45;&gt;nh_unique -->
<g id="edge6" class="edge">
<title>nh_check_rank_uniqueness&#45;&gt;nh_unique</title>
<path fill="none" stroke="black" d="M358.08,-223.25C358.08,-223.25 358.08,-160.51 358.08,-160.51"/>
<polygon fill="black" stroke="black" points="361.58,-160.51 358.08,-150.51 354.58,-160.51 361.58,-160.51"/>
<text text-anchor="middle" x="376.5" y="-180.8" font-family="SimHei" font-size="14.00">是</text>
</g>
<!-- nh_infinite -->
<g id="node10" class="node">
<title>nh_infinite</title>
<path fill="#98fb98" stroke="black" d="M481,-150.5C481,-150.5 417,-150.5 417,-150.5 411,-150.5 405,-144.5 405,-138.5 405,-138.5 405,-126.5 405,-126.5 405,-120.5 411,-114.5 417,-114.5 417,-114.5 481,-114.5 481,-114.5 487,-114.5 493,-120.5 493,-126.5 493,-126.5 493,-138.5 493,-138.5 493,-144.5 487,-150.5 481,-150.5"/>
<text text-anchor="middle" x="449" y="-128.8" font-family="SimHei" font-size="14.00">有无穷多解</text>
</g>
<!-- nh_check_rank_uniqueness&#45;&gt;nh_infinite -->
<g id="edge7" class="edge">
<title>nh_check_rank_uniqueness&#45;&gt;nh_infinite</title>
<path fill="none" stroke="black" d="M449,-215.99C449,-215.99 449,-160.56 449,-160.56"/>
<polygon fill="black" stroke="black" points="452.5,-160.56 449,-150.56 445.5,-160.56 452.5,-160.56"/>
<text text-anchor="middle" x="477" y="-180.8" font-family="SimHei" font-size="14.00">否 (Rank(A) &lt; n)</text>
</g>
<!-- nh_note -->
<g id="node11" class="node">
<title>nh_note</title>
<polygon fill="#f5f5f5" stroke="black" points="508.5,-69 383.5,-69 383.5,-16 514.5,-16 514.5,-63 508.5,-69"/>
<polyline fill="none" stroke="black" points="508.5,-69 508.5,-63"/>
<polyline fill="none" stroke="black" points="514.5,-63 508.5,-63"/>
<text text-anchor="middle" x="449" y="-53.8" font-family="SimHei" font-size="14.00">注：当 m &lt; n 时,</text>
<text text-anchor="middle" x="449" y="-38.8" font-family="SimHei" font-size="14.00">若方程组有解,</text>
<text text-anchor="middle" x="449" y="-23.8" font-family="SimHei" font-size="14.00">则必有无穷多解。</text>
</g>
<!-- nh_infinite&#45;&gt;nh_note -->
</g>
</svg>
